<?xml version="1.0" standalone="no"?>
<!DOCTYPE svg PUBLIC "-//W3C//DTD SVG 20010904//EN"
 "http://www.w3.org/TR/2001/REC-SVG-20010904/DTD/svg10.dtd">
<svg version="1.0" xmlns="http://www.w3.org/2000/svg"
 width="1024.000000pt" height="1024.000000pt" viewBox="0 0 1024.000000 1024.000000"
 preserveAspectRatio="xMidYMid meet">
<metadata>
Created by potrace 1.11, written by Peter Selinger 2001-2013
</metadata>
<g transform="translate(0.000000,1024.000000) scale(0.100000,-0.100000)"
fill="#000000" stroke="none">
<path d="M2145 10223 c-697 -60 -1288 -390 -1697 -946 -213 -290 -353 -637
-415 -1027 -17 -109 -18 -267 -18 -3140 0 -3248 -3 -3074 51 -3320 72 -330
239 -677 455 -945 304 -378 745 -662 1215 -781 274 -69 18 -64 3394 -64 3376
0 3120 -5 3394 64 395 100 759 308 1050 600 190 190 323 378 441 621 83 171
131 301 169 460 60 253 56 34 56 3350 0 2062 -3 3068 -10 3125 -62 499 -296
975 -655 1335 -346 345 -781 564 -1295 652 -99 17 -275 18 -3100 19 -1647 0
-3013 -1 -3035 -3z m3175 -3098 c5 -1268 6 -1343 24 -1395 66 -199 197 -334
386 -396 52 -18 118 -19 1108 -22 l1052 -3 -2 -1542 -3 -1542 -27 -73 c-52
-144 -153 -264 -275 -329 -126 -68 58 -63 -2453 -63 -2511 0 -2327 -5 -2453
63 -122 65 -223 185 -275 329 l-27 73 -3 2864 c-2 3156 -7 2909 59 3050 79
171 234 290 417 321 26 4 592 7 1257 6 l1210 -1 5 -1340z m753 1223 c12 -13
170 -205 352 -428 181 -223 565 -694 852 -1047 288 -354 531 -656 541 -672 16
-29 16 -31 -4 -58 l-21 -28 -744 0 -744 0 -58 23 c-75 31 -174 122 -215 200
-63 118 -62 97 -62 1085 l0 898 25 24 c30 31 50 31 78 3z"/>
<path d="M3344 4440 c-35 -14 -72 -68 -79 -113 -4 -23 -5 -128 -3 -233 3 -210
8 -226 71 -264 31 -20 65 -20 1797 -20 1732 0 1766 0 1797 20 64 39 68 53 71
276 4 225 -3 265 -48 309 l-31 30 -1777 2 c-977 1 -1786 -2 -1798 -7z"/>
<path d="M3324 3361 c-55 -34 -64 -76 -64 -299 0 -219 10 -262 66 -299 27 -17
101 -18 1804 -18 1703 0 1777 1 1804 18 56 37 66 80 66 302 0 175 -3 205 -19
242 -37 80 131 73 -1853 73 -1721 0 -1774 -1 -1804 -19z"/>
</g>
</svg>
